<!-- Exported by Character Map UWP -->
<svg height="100%" viewBox="50 -216 252 252" width="100%" xmlns="http://www.w3.org/2000/svg" xmlns:xlink="http://www.w3.org/1999/xlink">
  <path d="M301.5,-162.875L301.5,1.375C301.5,6.125 300.583,10.6042 298.75,14.8125C296.917,19.0208 294.438,22.6875 291.313,25.8125C288.188,28.9375 284.521,31.3958 280.313,33.1875C276.104,34.9792 271.625,35.875 266.875,35.875L84.625,35.875C79.875,35.875 75.3958,34.9792 71.1875,33.1875C66.9792,31.3958 63.3125,28.9375 60.1875,25.8125C57.0625,22.6875 54.5833,19.0208 52.75,14.8125C50.9167,10.6042 50,6.125 50,1.375L50,-181.125C50,-185.875 50.9167,-190.354 52.75,-194.563C54.5833,-198.771 57.0625,-202.438 60.1875,-205.563C63.3125,-208.688 66.9792,-211.146 71.1875,-212.938C75.3958,-214.729 79.875,-215.625 84.625,-215.625L248.625,-215.625C252.958,-215.625 256.958,-214.833 260.625,-213.25C264.292,-211.667 267.708,-209.417 270.875,-206.5C274.542,-203 278.167,-199.479 281.75,-195.938C285.333,-192.396 288.875,-188.792 292.375,-185.125C295.292,-182.042 297.542,-178.625 299.125,-174.875C300.708,-171.125 301.5,-167.125 301.5,-162.875Z" fill="#635994" fill-opacity="1">
  </path>
  <path d="M85.875,-71.875L265.625,-71.875L265.625,35.875L85.875,35.875L85.875,-71.875Z" fill="#E6E6E6" fill-opacity="1">
  </path>
  <path d="M85.875,-76.375C85.875,-78.2083 86.2292,-79.9583 86.9375,-81.625C87.6458,-83.2917 88.6042,-84.7292 89.8125,-85.9375C91.0208,-87.1458 92.4375,-88.1042 94.0625,-88.8125C95.6875,-89.5208 97.4583,-89.875 99.375,-89.875L252.125,-89.875C253.958,-89.875 255.688,-89.5208 257.313,-88.8125C258.938,-88.1042 260.375,-87.125 261.625,-85.875C262.875,-84.625 263.854,-83.1875 264.563,-81.5625C265.271,-79.9375 265.625,-78.2083 265.625,-76.375L265.625,-62.875L85.875,-62.875Z" fill="#F8312F" fill-opacity="1">
  </path>
  <path d="M248.625,-215.625C251.625,-215.625 254.562,-215.208 257.438,-214.375C260.313,-213.542 263.042,-212.333 265.625,-210.75L265.625,-132.5C265.625,-130.333 265.208,-128.313 264.375,-126.438C263.542,-124.563 262.417,-122.917 261,-121.5C259.583,-120.083 257.917,-118.958 256,-118.125C254.083,-117.292 252.042,-116.875 249.875,-116.875L101.625,-116.875C99.4583,-116.875 97.4167,-117.271 95.5,-118.063C93.5833,-118.854 91.9167,-119.958 90.5,-121.375C89.0833,-122.792 87.9583,-124.458 87.125,-126.375C86.2917,-128.292 85.875,-130.333 85.875,-132.5L85.875,-215.625Z" fill="#321B41" fill-opacity="1">
  </path>
  <path d="M235.375,-125.75L143,-125.75C139.583,-125.75 136.708,-126.938 134.375,-129.313C132.042,-131.688 130.875,-134.583 130.875,-138L130.875,-204.25C130.875,-207.417 131.979,-210.104 134.188,-212.313C136.396,-214.521 139.083,-215.625 142.25,-215.625L247.625,-215.625L247.625,-138C247.625,-134.583 246.438,-131.688 244.063,-129.313C241.688,-126.938 238.792,-125.75 235.375,-125.75Z" fill="#E6E6E6" fill-opacity="1">
  </path>
  <path d="M229.875,-134.75L211.375,-134.75C208.958,-134.75 206.917,-135.625 205.25,-137.375C203.583,-139.125 202.75,-141.208 202.75,-143.625L202.75,-197.875C202.75,-200.292 203.583,-202.354 205.25,-204.063C206.917,-205.771 208.958,-206.625 211.375,-206.625L229.875,-206.625C232.292,-206.625 234.354,-205.771 236.063,-204.063C237.771,-202.354 238.625,-200.292 238.625,-197.875L238.625,-143.5C238.625,-141.083 237.771,-139.021 236.063,-137.313C234.354,-135.604 232.292,-134.75 229.875,-134.75Z" fill="#321B41" fill-opacity="1">
  </path>
</svg>