<!-- Exported by Character Map UWP -->
<svg height="100%" viewBox="50 -163 251 200" width="100%" xmlns="http://www.w3.org/2000/svg" xmlns:xlink="http://www.w3.org/1999/xlink">
  <path d="M249.5,-162.625C251.083,-162.625 252.333,-162 253.25,-160.75L299.625,-98.875C299.958,-98.4583 300.229,-98 300.438,-97.5C300.646,-97 300.75,-96.4583 300.75,-95.875C300.75,-94.625 300.375,-93.625 299.625,-92.875L178.875,35C177.958,36 176.833,36.5 175.5,36.5C174,36.5 172.833,36 172,35L51.25,-92.875C50.5833,-93.5417 50.25,-94.5417 50.25,-95.875C50.25,-96.9583 50.5833,-97.9583 51.25,-98.875L98.25,-160.75C99.0833,-162 100.333,-162.625 102,-162.625L249.5,-162.625Z" fill="#00A6ED" fill-opacity="1">
  </path>
  <path d="M175.25,36.5C174.5,36.5 173.708,36.1875 172.875,35.5625C172.042,34.9375 171.208,34.2083 170.375,33.375C169.542,32.5417 168.771,31.6875 168.063,30.8125C167.354,29.9375 166.75,29.25 166.25,28.75C150.5,12 134.792,-4.60417 119.125,-21.0625C103.458,-37.5208 87.75,-54.125 72,-70.875C68.5,-74.5417 64.9792,-78.125 61.4375,-81.625C57.8958,-85.125 54.5417,-88.8333 51.375,-92.75C50.9583,-93.1667 50.625,-93.6042 50.375,-94.0625C50.125,-94.5208 50,-95.0833 50,-95.75C50,-96.3333 50.3333,-97.1875 51,-98.3125C51.6667,-99.4375 52.4583,-100.625 53.375,-101.875C54.2917,-103.125 55.2083,-104.292 56.125,-105.375C57.0417,-106.458 57.7083,-107.292 58.125,-107.875L175.875,-107.875L175.875,35.625C175.875,35.7917 175.854,35.9375 175.813,36.0625C175.771,36.1875 175.75,36.3333 175.75,36.5Z" fill="#1C5CD7" fill-opacity="1">
  </path>
  <path d="M175.75,-162.625C168.417,-151.542 161.146,-140.563 153.938,-129.688C146.729,-118.813 139.458,-107.875 132.125,-96.875C119.958,-96.875 107.813,-96.8958 95.6875,-96.9375C83.5625,-96.9792 71.4167,-97 59.25,-97C58.75,-97 58.1667,-97.0208 57.5,-97.0625C56.8333,-97.1042 56.1667,-97.2292 55.5,-97.4375C54.8333,-97.6458 54.2708,-97.9375 53.8125,-98.3125C53.3542,-98.6875 53.125,-99.25 53.125,-100C53.125,-100.667 53.2917,-101.271 53.625,-101.813C53.9583,-102.354 54.3333,-102.875 54.75,-103.375L98.25,-160.75C99.0833,-162 100.333,-162.625 102,-162.625L175.75,-162.625Z" fill="#0084CE" fill-opacity="1">
  </path>
  <path d="M175.75,36.5L132.125,-96.75L219.375,-96.75L175.75,36.5Z" fill="#AEDDFF" fill-opacity="1">
  </path>
  <path d="M248,-162.625C249.5,-162.625 250.583,-162.438 251.25,-162.063C251.917,-161.688 252.792,-161 253.875,-160C255.375,-158.5 256.813,-156.771 258.188,-154.813C259.563,-152.854 260.875,-151.042 262.125,-149.375C265.042,-145.458 267.958,-141.563 270.875,-137.688C273.792,-133.813 276.708,-129.917 279.625,-126C282.042,-122.75 284.458,-119.479 286.875,-116.188C289.292,-112.896 291.708,-109.625 294.125,-106.375C295.125,-104.958 296.25,-103.458 297.5,-101.875C298.75,-100.292 299.792,-98.7083 300.625,-97.125L175.875,-97.125L175.875,-162.625L248,-162.625Z" fill="#26EAFC" fill-opacity="1">
  </path>
  <path d="M175.75,-162.625L219.375,-96.75L132.125,-96.75L175.75,-162.625Z" fill="#B4F6FC" fill-opacity="1">
  </path>
</svg>