<!-- Exported by Character Map UWP -->
<svg height="100%" viewBox="49 -216 251 251" width="100%" xmlns="http://www.w3.org/2000/svg" xmlns:xlink="http://www.w3.org/1999/xlink">
  <path d="M222,-43.625C218.417,-35.4583 213.542,-28.2917 207.375,-22.125L171.5,13.75C164.75,20.5 157.042,25.6667 148.375,29.25C139.708,32.8333 130.625,34.625 121.125,34.625C111.292,34.625 102.042,32.7708 93.375,29.0625C84.7083,25.3542 77.1667,20.2708 70.75,13.8125C64.3333,7.35417 59.25,-0.1875 55.5,-8.8125C51.75,-17.4375 49.875,-26.6667 49.875,-36.5C49.875,-46.0833 51.6667,-55.1875 55.25,-63.8125C58.8333,-72.4375 64,-80.125 70.75,-86.875L106.75,-122.875C110,-126.125 113.375,-128.854 116.875,-131.063C120.375,-133.271 124.125,-135.417 128.125,-137.5C131.792,-139.333 135.417,-141.167 139,-143C142.583,-144.833 146.208,-146.708 149.875,-148.625C153.125,-147.625 156.396,-146.604 159.688,-145.563C162.979,-144.521 166.25,-143.5 169.5,-142.5C171,-142.083 172.542,-141.729 174.125,-141.438C175.708,-141.146 177.292,-140.75 178.875,-140.25C184.208,-138.583 189.292,-136.271 194.125,-133.313C198.958,-130.354 203.375,-126.875 207.375,-122.875C212.542,-117.708 216.813,-111.896 220.188,-105.438C223.563,-98.9792 225.833,-92.1667 227,-85L219.125,-66.5C217.792,-65.1667 216.312,-64.1042 214.688,-63.3125C213.062,-62.5208 211.292,-62.125 209.375,-62.125C206.958,-62.125 204.729,-62.7292 202.688,-63.9375C200.646,-65.1458 198.833,-66.5833 197.25,-68.25C197.833,-74.25 197.229,-79.9583 195.438,-85.375C193.646,-90.7917 190.937,-95.5417 187.313,-99.625C183.688,-103.708 179.292,-106.958 174.125,-109.375C168.958,-111.792 163.333,-113 157.25,-113C156.5,-113 155.75,-112.979 155,-112.938C154.25,-112.896 153.5,-112.833 152.75,-112.75L131.25,-96L123,-96L92.375,-65.375C88.5417,-61.5417 85.6042,-57.1458 83.5625,-52.1875C81.5208,-47.2292 80.5,-42.0417 80.5,-36.625C80.5,-31.0417 81.5625,-25.7917 83.6875,-20.875C85.8125,-15.9583 88.7083,-11.6458 92.375,-7.9375C96.0417,-4.22917 100.333,-1.3125 105.25,0.8125C110.167,2.9375 115.458,4 121.125,4C126.542,4 131.729,2.97917 136.688,0.9375C141.646,-1.10417 146.042,-4.04167 149.875,-7.875L180.5,-38.5C185,-40.3333 189.604,-41.9583 194.313,-43.375C199.021,-44.7917 203.833,-45.5 208.75,-45.5C211,-45.5 213.229,-45.3333 215.438,-45C217.646,-44.6667 219.833,-44.2083 222,-43.625Z" fill="#9B9B9B" fill-opacity="1">
  </path>
  <path d="M228.875,-215.625C235.458,-215.625 241.771,-214.771 247.813,-213.063C253.854,-211.354 259.521,-208.958 264.813,-205.875C270.104,-202.792 274.917,-199.083 279.25,-194.75C283.583,-190.417 287.292,-185.625 290.375,-180.375C293.458,-175.125 295.854,-169.458 297.563,-163.375C299.271,-157.292 300.125,-151 300.125,-144.5C300.125,-134.917 298.354,-125.833 294.813,-117.25C291.271,-108.667 286.125,-101 279.375,-94.25L243.5,-58.375C236.833,-51.7083 229.104,-46.5625 220.313,-42.9375C211.521,-39.3125 202.417,-37.5 193,-37.5C184.417,-37.5 176.229,-38.9583 168.438,-41.875C160.646,-44.7917 153.625,-48.8542 147.375,-54.0625C141.125,-59.2708 135.896,-65.4583 131.688,-72.625C127.479,-79.7917 124.625,-87.625 123.125,-96.125C125.458,-98.4583 127.667,-100.583 129.75,-102.5C131.833,-104.417 134.021,-106.083 136.313,-107.5C138.604,-108.917 141.063,-110.063 143.688,-110.938C146.313,-111.813 149.333,-112.458 152.75,-112.875C152.083,-106.875 152.667,-101.167 154.5,-95.75C156.333,-90.3333 159.083,-85.5833 162.75,-81.5C166.417,-77.4167 170.833,-74.1667 176,-71.75C181.167,-69.3333 186.792,-68.125 192.875,-68.125C196.708,-68.125 200.167,-68.5208 203.25,-69.3125C206.333,-70.1042 209.208,-71.25 211.875,-72.75C214.542,-74.25 217.104,-76.0417 219.563,-78.125C222.021,-80.2083 224.542,-82.5417 227.125,-85.125L257.75,-115.75C261.583,-119.583 264.521,-123.958 266.563,-128.875C268.604,-133.792 269.625,-139 269.625,-144.5C269.625,-150.083 268.563,-155.333 266.438,-160.25C264.313,-165.167 261.417,-169.479 257.75,-173.188C254.083,-176.896 249.771,-179.813 244.813,-181.938C239.854,-184.063 234.583,-185.125 229,-185.125C223.583,-185.125 218.396,-184.104 213.438,-182.063C208.479,-180.021 204.083,-177.083 200.25,-173.25L169.625,-142.625C167.542,-143.042 165.479,-143.313 163.438,-143.438C161.396,-143.563 159.333,-143.625 157.25,-143.625C152.25,-143.625 147.292,-143.125 142.375,-142.125C137.458,-141.125 132.708,-139.583 128.125,-137.5C131.542,-145.5 136.375,-152.625 142.625,-158.875L178.625,-194.875C185.375,-201.625 193.063,-206.771 201.688,-210.313C210.313,-213.854 219.375,-215.625 228.875,-215.625Z" fill="#BEBEBE" fill-opacity="1">
  </path>
</svg>