<!-- Exported by Character Map UWP -->
<svg height="100%" viewBox="52 -213 247 246" width="100%" xmlns="http://www.w3.org/2000/svg" xmlns:xlink="http://www.w3.org/1999/xlink">
  <path d="M271,-212.125C274.75,-212.125 278.271,-211.417 281.563,-210C284.854,-208.583 287.708,-206.667 290.125,-204.25C292.542,-201.833 294.458,-198.979 295.875,-195.688C297.292,-192.396 298,-188.875 298,-185.125C298,-181.625 297.313,-178.208 295.938,-174.875C294.563,-171.542 292.625,-168.625 290.125,-166.125L128.125,-4.125C127.208,-3.20833 126.125,-2.75 124.875,-2.75C123.708,-2.75 122.667,-3.20833 121.75,-4.125L96.25,-11.625L90,-35.875C89.0833,-36.7917 88.625,-37.8333 88.625,-39C88.625,-40.25 89.0833,-41.3333 90,-42.25L252,-204.25C254.5,-206.75 257.417,-208.688 260.75,-210.063C264.083,-211.438 267.5,-212.125 271,-212.125Z" fill="#0074BA" fill-opacity="1">
  </path>
  <path d="M248.75,-203.625C251.25,-203.625 253.375,-202.75 255.125,-201L296.5,-159.75C298.25,-158 299.125,-155.875 299.125,-153.375C299.125,-150.875 298.25,-148.75 296.5,-147L252,-102.625C250.25,-100.875 248.125,-100 245.625,-100C243.208,-100 241.104,-100.875 239.313,-102.625C237.521,-104.375 236.625,-106.458 236.625,-108.875C236.625,-111.375 237.5,-113.5 239.25,-115.25L277.375,-153.375L242.5,-188.375C240.75,-190.125 239.875,-192.208 239.875,-194.625C239.875,-197.125 240.75,-199.25 242.5,-201C244.25,-202.75 246.333,-203.625 248.75,-203.625ZM159.875,-116.5C161.125,-116.5 162.167,-116.083 163,-115.25L201.125,-77.125C201.958,-76.2917 202.375,-75.2083 202.375,-73.875C202.375,-73.0417 202.083,-72.1667 201.5,-71.25C200.917,-70.3333 200.208,-69.4583 199.375,-68.625C198.542,-67.7917 197.708,-67.0208 196.875,-66.3125C196.042,-65.6042 195.375,-65 194.875,-64.5C193.958,-63.5833 192.875,-63.125 191.625,-63.125C190.458,-63.125 189.417,-63.5833 188.5,-64.5L150.375,-102.5C149.458,-103.417 149,-104.458 149,-105.625C149,-106.875 149.458,-107.958 150.375,-108.875C150.875,-109.375 151.479,-110.042 152.188,-110.875C152.896,-111.708 153.688,-112.542 154.563,-113.375C155.438,-114.208 156.333,-114.938 157.25,-115.563C158.167,-116.188 159.042,-116.5 159.875,-116.5ZM90,-35.875L121.75,-4.125L103.75,13.875C101,16.625 97.7083,18.7083 93.875,20.125C93.2083,20.375 91.8542,20.875 89.8125,21.625C87.7708,22.375 85.3958,23.25 82.6875,24.25C79.9792,25.25 77.1042,26.3125 74.0625,27.4375C71.0208,28.5625 68.2083,29.5833 65.625,30.5C63.0417,31.4167 60.8333,32.1875 59,32.8125C57.1667,33.4375 56.125,33.75 55.875,33.75C54.875,33.75 54,33.375 53.25,32.625C52.5,31.875 52.125,31 52.125,30C52.125,29.75 52.4375,28.7083 53.0625,26.875C53.6875,25.0417 54.4583,22.8333 55.375,20.25C56.2917,17.6667 57.3125,14.8542 58.4375,11.8125C59.5625,8.77083 60.625,5.89583 61.625,3.1875C62.625,0.479167 63.5,-1.91667 64.25,-4C65,-6.08333 65.5,-7.41667 65.75,-8C67.1667,-11.8333 69.25,-15.125 72,-17.875Z" fill="#D3D3D3" fill-opacity="1">
  </path>
  <path d="M86.75,8C84.3333,8 82.25,7.125 80.5,5.375C78.75,3.625 77.875,1.54167 77.875,-0.875C77.875,-3.375 78.75,-5.5 80.5,-7.25C82.25,-9 84.3333,-9.875 86.75,-9.875C89.25,-9.875 91.375,-9 93.125,-7.25C94.875,-5.5 95.75,-3.375 95.75,-0.875C95.75,1.54167 94.875,3.625 93.125,5.375C91.375,7.125 89.25,8 86.75,8Z" fill="#636363" fill-opacity="1">
  </path>
</svg>