<!-- Exported by Character Map UWP -->
<svg height="100%" viewBox="50 -162 252 198" width="100%" xmlns="http://www.w3.org/2000/svg" xmlns:xlink="http://www.w3.org/1999/xlink">
  <path d="M71.875,-100.75C71.875,-103.917 72.2083,-107.167 72.875,-110.5C73.5417,-113.833 74.3333,-117 75.25,-120C77.5833,-127.167 80.6875,-133.375 84.5625,-138.625C88.4375,-143.875 93,-148.208 98.25,-151.625C103.5,-155.042 109.333,-157.583 115.75,-159.25C122.167,-160.917 129.083,-161.75 136.5,-161.75L153.875,-142.75ZM275.75,-100.75L193.75,-142.75L211,-161.75C218.417,-161.75 225.354,-160.917 231.813,-159.25C238.271,-157.583 244.125,-155.042 249.375,-151.625C254.625,-148.208 259.188,-143.875 263.063,-138.625C266.938,-133.375 270.042,-127.167 272.375,-120C273.292,-117 274.083,-113.833 274.75,-110.5C275.417,-107.167 275.75,-103.917 275.75,-100.75Z" fill="#000000" fill-opacity="1">
  </path>
  <path d="M235,-152.75C240.083,-152.75 244.833,-152.021 249.25,-150.563C253.667,-149.104 257.646,-147.021 261.188,-144.313C264.729,-141.604 267.771,-138.313 270.313,-134.438C272.854,-130.563 274.792,-126.167 276.125,-121.25C277.042,-117.667 278.063,-114.125 279.188,-110.625C280.313,-107.125 281.375,-103.583 282.375,-100C284.375,-92.6667 286.5,-84.6875 288.75,-76.0625C291,-67.4375 293.063,-58.6667 294.938,-49.75C296.813,-40.8333 298.375,-32.0208 299.625,-23.3125C300.875,-14.6042 301.5,-6.5 301.5,1C301.5,3.33333 301.417,5.75 301.25,8.25C301.083,10.75 300.667,13.125 300,15.375C299.333,17.625 298.313,19.75 296.938,21.75C295.563,23.75 294,25.5625 292.25,27.1875C290.5,28.8125 288.583,30.2917 286.5,31.625C284.417,32.9583 282.333,34.0417 280.25,34.875C279.5,35.2083 278.729,35.4167 277.938,35.5C277.146,35.5833 276.375,35.625 275.625,35.625C274.208,35.625 272.688,35.4167 271.063,35C269.438,34.5833 268.042,33.9167 266.875,33L221.75,-5.125C220.25,-6.375 218.438,-7.33333 216.313,-8C214.188,-8.66667 212.167,-9 210.25,-9L141.125,-9C138.875,-9 136.854,-8.66667 135.063,-8C133.271,-7.33333 131.458,-6.375 129.625,-5.125C127.458,-3.625 125.375,-1.9375 123.375,-0.0625C121.375,1.8125 119.375,3.58333 117.375,5.25L94.875,24.25C93.2917,25.6667 91.6458,27.1875 89.9375,28.8125C88.2292,30.4375 86.5,31.8333 84.75,33C83.3333,33.9167 82.0417,34.625 80.875,35.125C79.7083,35.625 78.2083,35.875 76.375,35.875C74.7917,35.875 73.125,35.5417 71.375,34.875C67.2917,33.2083 63.875,31.2708 61.125,29.0625C58.375,26.8542 56.1875,24.3542 54.5625,21.5625C52.9375,18.7708 51.7708,15.625 51.0625,12.125C50.3542,8.625 50,4.75 50,0.5C50,-5.83333 50.3958,-12.1458 51.1875,-18.4375C51.9792,-24.7292 52.9583,-31 54.125,-37.25C56.0417,-47.9167 58.25,-58.4583 60.75,-68.875C63.25,-79.2917 65.9583,-89.7083 68.875,-100.125C69.875,-103.708 70.9167,-107.25 72,-110.75C73.0833,-114.25 74.0833,-117.75 75,-121.25C76.3333,-126.083 78.2708,-130.438 80.8125,-134.313C83.3542,-138.188 86.3958,-141.5 89.9375,-144.25C93.4792,-147 97.4583,-149.104 101.875,-150.563C106.292,-152.021 111.042,-152.75 116.125,-152.75L235,-152.75Z" fill="#533566" fill-opacity="1">
  </path>
  <path d="M236,-111.5C233.583,-111.5 231.5,-112.396 229.75,-114.188C228,-115.979 227.125,-118.083 227.125,-120.5C227.125,-122.917 228,-125.021 229.75,-126.813C231.5,-128.604 233.583,-129.5 236,-129.5C238.5,-129.5 240.625,-128.625 242.375,-126.875C244.125,-125.125 245,-123 245,-120.5C245,-118 244.125,-115.875 242.375,-114.125C240.625,-112.375 238.5,-111.5 236,-111.5Z" fill="#FCD53F" fill-opacity="1">
  </path>
  <path d="M236,-70.875C233.583,-70.875 231.5,-71.7708 229.75,-73.5625C228,-75.3542 227.125,-77.4583 227.125,-79.875C227.125,-82.2917 228,-84.3958 229.75,-86.1875C231.5,-87.9792 233.583,-88.875 236,-88.875C238.5,-88.875 240.625,-88 242.375,-86.25C244.125,-84.5 245,-82.375 245,-79.875C245,-77.375 244.125,-75.25 242.375,-73.5C240.625,-71.75 238.5,-70.875 236,-70.875Z" fill="#86D72F" fill-opacity="1">
  </path>
  <path d="M215.75,-91.25C213.25,-91.25 211.125,-92.125 209.375,-93.875C207.625,-95.625 206.75,-97.75 206.75,-100.25C206.75,-102.667 207.646,-104.75 209.438,-106.5C211.229,-108.25 213.333,-109.125 215.75,-109.125C218.167,-109.125 220.271,-108.25 222.063,-106.5C223.854,-104.75 224.75,-102.667 224.75,-100.25C224.75,-97.75 223.875,-95.625 222.125,-93.875C220.375,-92.125 218.25,-91.25 215.75,-91.25Z" fill="#00A6ED" fill-opacity="1">
  </path>
  <path d="M256.375,-91.25C253.875,-91.25 251.75,-92.125 250,-93.875C248.25,-95.625 247.375,-97.75 247.375,-100.25C247.375,-102.667 248.271,-104.75 250.063,-106.5C251.854,-108.25 253.958,-109.125 256.375,-109.125C258.792,-109.125 260.896,-108.25 262.688,-106.5C264.479,-104.75 265.375,-102.667 265.375,-100.25C265.375,-97.75 264.5,-95.625 262.75,-93.875C261,-92.125 258.875,-91.25 256.375,-91.25Z" fill="#F8312F" fill-opacity="1">
  </path>
  <path d="M175.75,-112.625C174.083,-112.625 172.542,-112.938 171.125,-113.563C169.708,-114.188 168.479,-115.021 167.438,-116.063C166.396,-117.104 165.563,-118.333 164.938,-119.75C164.313,-121.167 164,-122.708 164,-124.375C164,-125.958 164.313,-127.479 164.938,-128.938C165.563,-130.396 166.396,-131.646 167.438,-132.688C168.479,-133.729 169.708,-134.563 171.125,-135.188C172.542,-135.813 174.083,-136.125 175.75,-136.125C177.333,-136.125 178.854,-135.813 180.313,-135.188C181.771,-134.563 183.021,-133.729 184.063,-132.688C185.104,-131.646 185.938,-130.396 186.563,-128.938C187.188,-127.479 187.5,-125.958 187.5,-124.375C187.5,-122.708 187.188,-121.167 186.563,-119.75C185.938,-118.333 185.104,-117.104 184.063,-116.063C183.021,-115.021 181.771,-114.188 180.313,-113.563C178.854,-112.938 177.333,-112.625 175.75,-112.625Z" fill="#D3D3D3" fill-opacity="1">
  </path>
  <path d="M118.875,-80.5C116.208,-80.5 113.708,-81.0208 111.375,-82.0625C109.042,-83.1042 107,-84.5 105.25,-86.25C103.5,-88 102.125,-90.0417 101.125,-92.375C100.125,-94.7083 99.625,-97.2083 99.625,-99.875C99.625,-102.542 100.125,-105.042 101.125,-107.375C102.125,-109.708 103.5,-111.75 105.25,-113.5C107,-115.25 109.042,-116.625 111.375,-117.625C113.708,-118.625 116.208,-119.125 118.875,-119.125C121.542,-119.125 124.042,-118.625 126.375,-117.625C128.708,-116.625 130.75,-115.25 132.5,-113.5C134.25,-111.75 135.646,-109.708 136.688,-107.375C137.729,-105.042 138.25,-102.542 138.25,-99.875C138.25,-97.2083 137.75,-94.6875 136.75,-92.3125C135.75,-89.9375 134.375,-87.875 132.625,-86.125C130.875,-84.375 128.813,-83 126.438,-82C124.063,-81 121.542,-80.5 118.875,-80.5ZM208.75,-28.25C206.083,-28.25 203.583,-28.75 201.25,-29.75C198.917,-30.75 196.875,-32.125 195.125,-33.875C193.375,-35.625 191.979,-37.6667 190.938,-40C189.896,-42.3333 189.375,-44.8333 189.375,-47.5C189.375,-50.1667 189.896,-52.6667 190.938,-55C191.979,-57.3333 193.375,-59.375 195.125,-61.125C196.875,-62.875 198.917,-64.2708 201.25,-65.3125C203.583,-66.3542 206.083,-66.875 208.75,-66.875C211.417,-66.875 213.917,-66.3542 216.25,-65.3125C218.583,-64.2708 220.625,-62.875 222.375,-61.125C224.125,-59.375 225.521,-57.3333 226.563,-55C227.604,-52.6667 228.125,-50.1667 228.125,-47.5C228.125,-44.8333 227.604,-42.3333 226.563,-40C225.521,-37.6667 224.125,-35.625 222.375,-33.875C220.625,-32.125 218.583,-30.75 216.25,-29.75C213.917,-28.75 211.417,-28.25 208.75,-28.25ZM169.375,-48.125C169.375,-46.7917 169.083,-45.7708 168.5,-45.0625C167.917,-44.3542 167.188,-43.8542 166.313,-43.5625C165.438,-43.2708 164.458,-43.1042 163.375,-43.0625C162.292,-43.0208 161.292,-43 160.375,-43C158.792,-43 157.646,-42.6458 156.938,-41.9375C156.229,-41.2292 155.75,-40.3542 155.5,-39.3125C155.25,-38.2708 155.125,-37.1458 155.125,-35.9375C155.125,-34.7292 155,-33.6042 154.75,-32.5625C154.5,-31.5208 154.042,-30.6458 153.375,-29.9375C152.708,-29.2292 151.583,-28.875 150,-28.875C148.667,-28.875 147.646,-29.1667 146.938,-29.75C146.229,-30.3333 145.708,-31.0833 145.375,-32C145.042,-32.9167 144.854,-33.8958 144.813,-34.9375C144.771,-35.9792 144.75,-37 144.75,-38C144.75,-39.5833 144.396,-40.7083 143.688,-41.375C142.979,-42.0417 142.104,-42.5 141.063,-42.75C140.021,-43 138.875,-43.125 137.625,-43.125C136.375,-43.125 135.229,-43.25 134.188,-43.5C133.146,-43.75 132.271,-44.2083 131.563,-44.875C130.854,-45.5417 130.5,-46.6667 130.5,-48.25C130.5,-49.5833 130.792,-50.6042 131.375,-51.3125C131.958,-52.0208 132.708,-52.5417 133.625,-52.875C134.542,-53.2083 135.542,-53.3958 136.625,-53.4375C137.708,-53.4792 138.708,-53.5 139.625,-53.5C141.208,-53.5 142.354,-53.8542 143.063,-54.5625C143.771,-55.2708 144.25,-56.1458 144.5,-57.1875C144.75,-58.2292 144.875,-59.375 144.875,-60.625C144.875,-61.875 145,-63.0208 145.25,-64.0625C145.5,-65.1042 145.958,-65.9792 146.625,-66.6875C147.292,-67.3958 148.417,-67.75 150,-67.75C151.333,-67.75 152.354,-67.4583 153.063,-66.875C153.771,-66.2917 154.292,-65.5417 154.625,-64.625C154.958,-63.7083 155.146,-62.7292 155.188,-61.6875C155.229,-60.6458 155.25,-59.625 155.25,-58.625C155.25,-57.0417 155.604,-55.8958 156.313,-55.1875C157.021,-54.4792 157.896,-54 158.938,-53.75C159.979,-53.5 161.104,-53.375 162.313,-53.375C163.521,-53.375 164.646,-53.25 165.688,-53C166.729,-52.75 167.604,-52.2708 168.313,-51.5625C169.021,-50.8542 169.375,-49.7083 169.375,-48.125Z" fill="#A4AEEB" fill-opacity="1">
  </path>
</svg>