<?xml version="1.0" standalone="yes"?>
<svg xmlns="http://www.w3.org/2000/svg" width="256" height="256">
<path style="fill:#010101; stroke:none;" d="M0 0L0 256L256 256L256 0L0 0z"/>
<path style="fill:#9da3a5; stroke:none;" d="M35 4L35 194C35 208.692 35.8649 223.414 36 238C36.0389 242.198 34.0092 250.931 39 252L39 251L37 232L37 186L37 5L166 5L166 58L219 58L219 251L220 251L220 123L221 56C208.487 46.7903 197.072 33.1654 186.285 21.9144C181.289 16.7022 175.331 8.73738 168.961 5.3179C159.643 0.316101 140.471 4 130 4L35 4z"/>
<path style="fill:#f6f7f8; stroke:none;" d="M168 4L171 6L168 4M37 5L37 251L219 251L219 58L166 58L166 5L37 5M167 6L167 57L218 57L185 22L167 6M171 6L172 7L171 6M172 7L173 8L172 7M173 8L181 16L173 8M181 16L182 17L181 16M182 17L183 18L182 17M183 18L184 19L183 18M184 19L185 20L184 19M185 20L190 25L185 20M190 25L191 26L190 25M191 26L192 27L191 26M192 27L193 28L192 27M193 28L194 29L193 28M194 29L195 30L194 29M195 30L200 35L195 30M200 35L201 36L200 35M201 36L202 37L201 36M202 37L203 38L202 37M203 38L204 39L203 38M204 39L205 40L204 39M205 40L211 46L205 40M211 46L212 47L211 46M212 47L213 48L212 47M213 48L214 49L213 48M214 49L215 50L214 49M215 50L216 51L215 50M216 51L221 56L216 51z"/>
<path style="fill:#7c7e81; stroke:none;" d="M220 58L220 251L39 251L39 252L221 252L221 116L221 77L220 58z"/>
<path style="fill:#9da3a5; stroke:none;" d="M117 73L117 74L120 74L117 73z"/>
<path style="fill:#499fb6; stroke:none;" d="M126 97C123.921 103.849 115.874 102 110 102C96.8391 102 79.8578 98.1297 75.0432 114C72.1208 123.633 71.5699 138.332 77.7022 146.956C80.4277 150.789 89.8614 155.529 94.3966 151.971C96.9739 149.95 95.8901 144.84 96.0895 142C96.5711 135.141 99.2593 128.578 106 125.703C117.426 120.829 143.202 130.855 149.297 116.985C152.663 109.326 153.786 86.9244 148.347 80.213C140.314 70.3005 109.888 69.6557 102.09 80.3904C100.912 82.0117 100.434 84.0472 100.185 86.0008C98.2149 101.497 115.143 97 126 97z"/>
<path style="fill:#9da3a5; stroke:none;" d="M130 73L130 74L134 74L130 73M112.667 74.3333L113.333 74.6667L112.667 74.3333M137 74L138 75L137 74M109.667 75.3333L110.333 75.6667L109.667 75.3333M141 75L142 76L141 75M107 76L108 77L107 76M143 76L144 77L143 76M105 77L106 78L105 77M145 77L146 78L145 77M103 78L104 79L103 78M101 80L102 81L101 80M110.667 81.3333L111.333 81.6667L110.667 81.3333M149 81L150 82L149 81M100.333 82.6667L100.667 83.3333L100.333 82.6667M108 82L107 84L108 82z"/>
<path style="fill:#f6f7f8; stroke:none;" d="M109.231 83.0471C104.589 85.7057 107.885 93.0413 112.856 90.7122C118.163 88.2251 114.487 80.0374 109.231 83.0471z"/>
<path style="fill:#9da3a5; stroke:none;" d="M150 83L151 84L150 83M106 85L107 86L106 85M116 85L116 88L117 88L116 85M106 88L107 89L106 88M115 89L116 90L115 89M114 90L115 91L114 90M109 91L110 92L109 91M112.667 91.3333L113.333 91.6667L112.667 91.3333M101 96L102 97L101 96M86 101L86 102L125 102C114.726 97.6889 97.1724 101 86 101M83 102L84 103L83 102M157 103L157 104L168 104L157 103M80 104L81 105L80 104z"/>
<path style="fill:#499fb6; stroke:none;" d="M157 104C157 113.472 158.574 125.407 147.996 130.005C136.467 135.017 106.184 124.715 103.225 142.001C101.884 149.832 100.17 170.416 105.653 176.606C113.511 185.479 147.148 186.518 152.258 173.956C159.851 155.291 138.269 159 127 159C128.854 152.894 134.596 154 140 154C148.762 154 163.055 156.705 170.96 152.543C183.745 145.812 183.207 116.322 173.787 107.228C169.325 102.921 162.696 104 157 104z"/>
<path style="fill:#9da3a5; stroke:none;" d="M170 104L171 105L170 104M79 105L80 106L79 105M172 105L173 106L172 105M78 106L79 107L78 106M173 106L174 107L173 106M174 107L175 108L174 107M175 108L176 109L175 108M76 109L77 110L76 109M176 110L177 111L176 110M75 112L76 113L75 112M150 112L150 115L151 115L150 112M177 112L178 113L177 112M178 114L179 115L178 114M74 115L75 116L74 115M156 117L156 121L157 121L156 117M179.333 117.667L179.667 118.333L179.333 117.667M73 119L73 122L74 122L73 119M144 122L145 123L144 122M141 123L142 124L141 123M155 123L156 124L155 123M110 124L110 125L134 125L110 124M105.667 125.333L106.333 125.667L105.667 125.333M103 126L104 127L103 126M153 126L154 127L153 126M152 127L153 128L152 127M180 127L180 130L181 130L180 127M151 128L152 129L151 128M149 129L150 130L149 129M147 130L148 131L147 130M98 131L99 132L98 131M119 131L119 132L143 132L119 131M73 132L73 137L74 137L73 132M111.667 132.333L112.333 132.667L111.667 132.333M97 133L98 134L97 133M109 133L110 134L109 133M107 134L108 135L107 134M105 136L106 137L105 136M104 137L105 138L104 137M179.333 137.667L179.667 138.333L179.333 137.667M96 138L96 152L97 152L96 138M74.3333 139.667L74.6667 140.333L74.3333 139.667M178 141L179 142L178 141M75 142L76 143L75 142M102 143L102 172L103 172L102 143M177 144L178 145L177 144M175 148L176 149L175 148M79 149L80 150L79 149M85 152L85 153L88 153L85 152M95 152L96 153L95 152M171 152L172 153L171 152M169 153L170 154L169 153M128 154L128 155L167 155C156.726 150.689 139.172 154 128 154M127 158L128 159L127 158M152 159L153 160L152 159M140 164L141 165L140 164z"/>
<path style="fill:#f6f7f8; stroke:none;" d="M141.054 164.971C135.393 166.237 137.347 174.458 142.957 173.573C148.843 172.645 146.608 163.728 141.054 164.971z"/>
<path style="fill:#9da3a5; stroke:none;" d="M143 164L144 165L143 164M145 165L146 166L145 165M137 171L138 172L137 171M103 173L104 174L103 173M139 173L140 174L139 173M141.667 174.333L142.333 174.667L141.667 174.333M152 174L153 175L152 174M104 175L105 176L104 175M107 178L108 179L107 178M148 178L149 179L148 178M109 179L110 180L109 179M145 179L146 180L145 179M112 180L113 181L112 180M142.667 180.333L143.333 180.667L142.667 180.333M116 181L117 182L116 181M139.667 181.333L140.333 181.667L139.667 181.333M120 182L120 183L124 183L120 182M133 182L133 183L136 183L133 182z"/>
<path style="fill:#499fb6; stroke:none;" d="M194 192C197.216 205.508 197.216 227.492 194 241L205.972 234.61L207 207L205.972 198.394L194 192z"/>
<path style="fill:#9da3a5; stroke:none;" d="M195 192L196 193L195 192M197 193L198 194L197 193M190 194L191 195L190 194z"/>
<path style="fill:#499fb6; stroke:none;" d="M193 238C193 227.86 191.066 222.261 181 218C188.255 208.143 193 207.131 193 194C185.231 196.641 181.566 205.633 174 208.183C169.607 209.663 164.311 201.594 160.662 206.337C157.728 210.151 163.562 214.291 166.001 216.424C173.47 222.959 182.918 236.444 193 238z"/>
<path style="fill:#9da3a5; stroke:none;" d="M199 194L200 195L199 194M207 199L207 234L208 234L207 199M181 202L182 203L181 202M180 203L181 204L180 203M179 204L180 205L179 204M160 205L161 206L160 205M178 205L179 206L178 205M159 206L160 207L159 206M167 206L168 207L167 206M158 208L159 209L158 208M189 209L190 210L189 209M184 213L185 214L184 213M166 216L167 217L166 216M167 217L166 218L169 221L170 220L167 217M181 217L182 218L181 217M164 218L165 219L164 218z"/>
<path style="fill:#499fb6; stroke:none;" d="M171 222C155.015 211.412 162.329 239.73 171 222z"/>
<path style="fill:#f6f7f8; stroke:none;" d="M167 218L169 220L167 218z"/>
<path style="fill:#9da3a5; stroke:none;" d="M185 220L186 221L185 220M171 223L172 224L171 223M189 223L190 224L189 223M158 224L159 225L158 224M170 224L171 225L170 224M190 224L191 225L190 224M159 226L160 227L159 226M160 227L161 228L160 227M178 227L179 228L178 227M161 228L162 229L161 228M179 228L180 229L179 228M180 229L181 230L180 229M181 230L182 231L181 230z"/>
<path style="fill:#7c7e81; stroke:none;" d="M35 232L35 252L36 252L35 232z"/>
<path style="fill:#9da3a5; stroke:none;" d="M195 240L196 241L195 240z"/>
</svg>
